# xmcd
#
# Track frame offsets: 
#        150
#        23075
#        44162
#
# Disc length: 909 seconds
#
# Revision: 2
# Processed by: cddbd v1.5.2PL0 Copyright (c) Steve Scherf et al.
# Submitted via: ExactAudioCopyFreeDBPlugin 1.0
#
DISCID=21038b03
DTITLE=高木完 - 愛のテーマ
DYEAR=1997
DGENRE=Hip-Hop
TTITLE0=愛のテーマ love theme (MASS MIX)
TTITLE1=愛のテーマ love theme (MASS MIX INST)
TTITLE2=ハイとロウ
EXTD=Powerd by gracenote music web API
EXTT0=
EXTT1=
EXTT2=
PLAYORDER=
